<svg xmlns="http://www.w3.org/2000/svg" viewBox="0 0 1024 1024"><path fill="#ef8a00" d="M902 312c6 5 8.4 10.4 10 18a162 162 0 0 1 .4 19.1v325.3c0 12-1.4 22.2-9.4 31.6-12.8 12.1-32.5 14.2-49 17.6C760.6 743 674 777.8 593.1 847l-4.4 4c-8.4 7.3-16.1 15.2-24 23.1L560 879c8.6-41 26-82 49-117l2-3q8.3-12.6 17.4-24.9c2.5-3.4 2.5-3.4 4.6-7.1l5-5q6.1-5.8 11.6-12a182 182 0 0 1 40.4-34c-.6-4-1.8-6.9-4-10.3l-1.5-2.7-1.5-2h-2l-.3-2.2c-.7-3-1.8-5-3.3-7.7l-1.7-2.8-1.8-3.2A592 592 0 0 1 624 528l-1-3.3q-5.9-19.5-10.7-39.1l-.6-2.3a550 550 0 0 1-5.8-24.6l-.5-2.1c-.4-2-.4-2-.4-5.6 2.3-2.8 2.3-2.8 5-5l7.7-7.8a184 184 0 0 1 23.8-21.2 494 494 0 0 1 60.6-41.6l2-1.3 4.8-2.8c2.2-1.3 2.2-1.3 4.1-3.3q3.6-2 7.1-3.6l2.2-1.1a703 703 0 0 1 85.7-36.6l11-4c2-.7 2-.7 5-.7l1-2 6.1-1.4 9.7-2.4C888.3 303 888.3 303 902 312"/><path fill="#ef8b00" d="m290 359 2.3 1.1A459 459 0 0 1 349 394l2 1.4c22.3 15.4 44.2 32 63 51.6l2.2 1.8c1.8 2.2 1.8 2.2 1.8 4.7l-.6 2.8-.7 3.2-.9 3.5-.8 3.7-4 16.7a709 709 0 0 1-17.7 63 565 565 0 0 1-53.8 117L333 675l2.6 1.8c10.7 7.5 21 15.4 30 24.8 1.5 1.6 1.5 1.6 3.8 3.2l1.6 1.2v2h2c1.4 1.4 1.4 1.4 3 3.4l8.3 9.3c37.8 42 62.8 97.4 77.2 151.5l1.5 4.8c-3-1.3-4.8-2.7-7-5.3a197 197 0 0 0-28.2-27.6A444 444 0 0 0 399 821l-2-1.4a494 494 0 0 0-22.1-15.8l-2.1-1.4c-60.4-40-127.9-62.7-198.2-78l-2-.5-26-5.5-2.5-.5c-9.5-2.1-18.8-6.4-25.1-13.9-5-8-7.1-15-7.1-24.3v-24.5l-.1-13.1v-46.6l-.3-200.3v-54.5c0-10.2.7-18.8 7.8-26.6 32.1-29.2 141.1 30.2 170.7 44.9"/><path fill="#060402" d="M454 472h115l7 35q2.2 9.3 4.7 18.6l.6 2.2a458 458 0 0 0 23.9 67q2.5 5.5 4 11.4l.8 1.8 3 1h-2l2 3.3a350 350 0 0 0 10.8 22.6l1.5 3.3 1.5 3.1a31 31 0 0 1 2.2 6.7h3l.2 2.6a33 33 0 0 0 4.9 10.6c3.9 6.4 3.9 6.4 3.9 9.8l-4.2 2.8q-5.1 3.6-9.6 8.3l-2.2 2q-7 6.8-13.1 14.5-2.6 3.3-5.3 6.2-7.3 8.7-13.6 18.2l-1.4 2c-34.3 51-52.5 111.4-59.6 172h-39a19 19 0 0 1-2.5-9.4 155 155 0 0 0-2.8-19.5l-.7-3.4q-2.6-13.6-7-26.7l-1.4-7.5a26 26 0 0 0-2.6-6.5l-1-3-2-1h3a514 514 0 0 0-18.6-47.8l-1.5-3.3c-2.4-5.2-2.4-5.2-5.5-10-1.5-2-1.9-3.5-2.4-5.9l-2-4-1.4-2.2-1.4-2.4-1.5-2.6A271 271 0 0 0 418 707l-2-2.5c-14.7-19.8-14.7-19.8-34-33.5q2.2-5.6 5-11h-3l1-3 2.4-.9c2.8-.9 2.8-.9 3.9-3.6l.7-2.5 4.5-9 1-1.9q2-3.8 3.5-8.1l1.4-1.9c1.8-2.3 2.7-4.5 3.7-7.2 1.9-4.8 1.9-4.8 2.9-6.9 16.2-29.9 16.2-29.9 23-62l2-1c.8-1.8.8-1.8 1.5-4l.8-2.6.8-2.6.9-2.7c1.5-4.8 1.5-4.8 2-9.8 0-2.3 0-2.3 2-4.3.8-2.5.8-2.5 1.5-5.5l.8-3.3.8-3.5.9-3.4c1.5-6.2 1.5-6.2 2-12.5 0-2.8 0-2.8 2-5.8zm34.8 170.2a25 25 0 0 0-5.7 18.9c1 8 3.7 13.7 9.9 18.9 4 2.8 7 4.2 12 4v3c-.3 14.5.8 29 2 43.5l.5 7.6c1 15 1 15 2.5 29.9h3q2.5-26.6 4.2-53.2l.1-2.1q.9-14.3.7-28.7l3.4-.4c6.3-1 10.6-5 14.5-10a28 28 0 0 0 3.8-19.8 29 29 0 0 0-12.5-17.6 31 31 0 0 0-38.4 6M388 657l1 2Z"/><path fill="#ee8a00" d="M510.4 90.6h3.9c25.1.5 47.7 10 66.7 26.4l2.8 2.1 2.2 1.9v2h2c21.6 23.6 29.3 51.3 28.2 82.9q-.8 10.8-4.2 21.1l-.6 2c-5.4 17.1-14.9 31.3-27.4 44h-2v2a108 108 0 0 1-78.5 27.2A102 102 0 0 1 444 277l-4-3v-2l-1.7-.6c-16.1-9.6-24.6-35.3-29-52.4-3.5-15.8-2.5-32-1.3-48h2l.3-1.8A94 94 0 0 1 433 125l2.3-3a56 56 0 0 1 11-9.8 102 102 0 0 1 64.1-21.6"/><path fill="#ed8900" d="M168 248q12.2.8 24.1 3.1l3.4.7a440 440 0 0 1 185.3 86.4q7.5 6 14.6 12.4 3 2.9 6.3 5.6a248 248 0 0 1 36.3 38.5 216 216 0 0 1 29 42.3h-3q-2.1-2.3-4-4.8-5.5-6-11.4-11.7l-4.4-4.4a273 273 0 0 0-19.4-18A458 458 0 0 0 397 376l-2.2-1.6A440 440 0 0 0 335 337l-2.6-1.4a588 588 0 0 0-161.2-55c-2.2-.6-2.2-.6-3.2-1.6l-.1-6.9v-2z"/><path fill="#ed8800" d="M840 248h14l.2 5.1.2 6.7.2 3.4v3.3l.2 3c.1 2.6.1 2.6 1.2 5.5-.8 2.6-.8 2.6-3 5-3.4 1.2-7 1.6-10.6 2.1A505 505 0 0 0 651 358l-2.4 1.6A440 440 0 0 0 619 381l-2.6 2q-8.2 6.5-15.6 13.5l-8.2 6.9q-7 5.8-13.3 12.3-4 4.2-8.5 8c-4 3.3-7.4 7.2-11 11.2L556 439c.5-5 3-8.6 5.8-12.7l1.4-2.3q15.6-23 34.6-43.4c1.4-1.7 1.4-1.7 2.2-4.6h3l.8-1.7a28 28 0 0 1 5.2-6.5l2.4-2.5 5.2-5q8.8-8.7 18.4-16.3l5.7-4.8a355 355 0 0 1 19-14.7l1.8-1.3c1.6-1.3 1.6-1.3 3.5-3.2 26-17.5 54.7-34.5 84.3-45.2 1.9-.7 1.9-.7 2.7-2.8l7-1 7.3-2.6c6.4-2.4 6.4-2.4 9.7-2.4l1-2 5.3-1.4q6.4-1.4 12.7-3.2 22.3-6.2 45-10.4z"/><path fill="#e48802" d="m564 862 3 1v3l6-1-12 14c-1.3-3.9-.2-6.4 1-10.2l.5-2z"/><path fill="#de8203" d="m563 425 2 4-8 10c-1-4-1-4 .4-6.6l4-5.4z"/><path fill="#cb7b05" d="m562 870 1 2h2a20 20 0 0 1-5 7z"/><path fill="#221405" d="m384 666 4 5-2 2-4-2z"/><path fill="#2a1a07" d="M638 665c1.5 1.3 1.5 1.3 3 3v3l-4 1z"/><path fill="#1a1106" d="M454 473h3l-2 8-2-1z"/><path fill="#482c07" d="m400 625 3 1v2h-3z"/><path fill="#412404" d="m456 771 2 3-1 2z"/><path fill="#0d0802" d="M512 749h1v6h-1z"/><path fill="#0a0703" d="M516 686h1v6h-1z"/><path fill="#0d0903" d="M511 759h1v5h-1z"/><path fill="#0f0a03" d="m513 737 1 4Z"/><path fill="#442804" d="m435 733 2 1-1 2z"/><path fill="#f29000" d="m336 338 2 2-2 1z"/><path fill="#ee8f02" d="m848 312 4 1Z"/><path fill="#eb8a00" d="m508 303 4 1Z"/><path fill="#ee8e01" d="M464 292h2v2h-2z"/><path fill="#e48901" d="m799 256 4 1Z"/><path fill="#e28601" d="m877 719 3 1Z"/><path fill="#533005" d="m401 691 2 2h-2z"/><path fill="#3f2808" d="m442 520 1 2-2-1z"/><path fill="#f18f00" d="m777 336 3 1Z"/><path fill="#ee8d00" d="m183 314 1 2-2-1z"/><path fill="#ea8d00" d="m333 304 3 1Z"/><path fill="#f08f01" d="m240 299 3 1Z"/><path fill="#e58900" d="m245 264 3 1Z"/><path fill="#a16108" d="m560 867 2 1Z"/><path fill="#e88a00" d="m400 823 2 1Z"/><path fill="#412703" d="m464 794 2 1Z"/><path fill="#eb8a00" d="m331 779 2 1Z"/><path fill="#ea8d01" d="m734 759 2 1Z"/><path fill="#492a04" d="m448 758 2 1Z"/><path fill="#ea8901" d="m266 750 2 1Z"/><path fill="#e68900" d="m845 726 2 1Z"/><path fill="#e88800" d="m179 726 2 1Z"/><path fill="#e98902" d="m680 680 2 1Z"/><path fill="#402605" d="m410 608 2 1Z"/><path fill="#f29101" d="m650 408 2 1Z"/><path fill="#e28a02" d="m576 400 2 1Z"/><path fill="#f19001" d="m672 392 2 1Z"/><path fill="#f19000" d="m697 376 2 1Z"/><path fill="#ef9001" d="m309 368 2 1Z"/><path fill="#f39200" d="m321 331 2 1Z"/><path fill="#ef9201" d="m221 328 2 1Z"/><path fill="#f08f00" d="m708 326 2 1Z"/><path fill="#ed8e03" d="m198 320 2 1Z"/><path fill="#f08f01" d="m842 314 2 1Z"/><path fill="#f09001" d="m765 303 2 1Z"/><path fill="#eb8c01" d="m516 303 2 1Z"/><path fill="#eb8c00" d="m504 303 2 1Z"/><path fill="#e98c00" d="m318 296 2 1Z"/><path fill="#f08f01" d="m826 286 2 1Z"/><path fill="#e98b00" d="m286 280 2 1Z"/><path fill="#de8100" d="m182 248 2 1Z"/><path fill="#e58a02" d="m549 96 2 1Z"/></svg>